<mxfile host="app.diagrams.net" modified="2023-05-18T15:12:24.737Z" agent="Mozilla/5.0 (Windows NT 10.0; Win64; x64) AppleWebKit/537.36 (KHTML, like Gecko) Chrome/112.0.0.0 Safari/537.36 OPR/98.0.0.0 (Edition std-1)" etag="570vaFah5N2-yvOIFLn4" version="21.3.2" type="device">
  <diagram id="R2lEEEUBdFMjLlhIrx00" name="Page-1">
    <mxGraphModel dx="1393" dy="804" grid="1" gridSize="10" guides="1" tooltips="1" connect="1" arrows="1" fold="1" page="1" pageScale="1" pageWidth="850" pageHeight="1100" math="0" shadow="0" extFonts="Permanent Marker^https://fonts.googleapis.com/css?family=Permanent+Marker">
      <root>
        <mxCell id="0" />
        <mxCell id="1" parent="0" />
        <mxCell id="xq6nGgoOThn_Jq3hT99E-76" style="edgeStyle=orthogonalEdgeStyle;rounded=0;orthogonalLoop=1;jettySize=auto;html=1;entryX=0.5;entryY=0;entryDx=0;entryDy=0;" parent="1" source="xq6nGgoOThn_Jq3hT99E-3" target="b5GPZ_7nPMZYBc7M1eJh-21" edge="1">
          <mxGeometry relative="1" as="geometry">
            <mxPoint x="310" y="100" as="targetPoint" />
          </mxGeometry>
        </mxCell>
        <mxCell id="xq6nGgoOThn_Jq3hT99E-77" style="edgeStyle=orthogonalEdgeStyle;rounded=0;orthogonalLoop=1;jettySize=auto;html=1;entryX=0.5;entryY=0;entryDx=0;entryDy=0;" parent="1" source="xq6nGgoOThn_Jq3hT99E-3" target="b5GPZ_7nPMZYBc7M1eJh-25" edge="1">
          <mxGeometry relative="1" as="geometry">
            <mxPoint x="770" y="100" as="targetPoint" />
          </mxGeometry>
        </mxCell>
        <mxCell id="xq6nGgoOThn_Jq3hT99E-3" value="&lt;font color=&quot;#ffffff&quot;&gt;PLAYGROUND&lt;/font&gt;" style="rounded=1;whiteSpace=wrap;html=1;fillColor=#3333FF;" parent="1" vertex="1">
          <mxGeometry x="480" y="10" width="120" height="60" as="geometry" />
        </mxCell>
        <mxCell id="b5GPZ_7nPMZYBc7M1eJh-7" style="edgeStyle=orthogonalEdgeStyle;rounded=0;orthogonalLoop=1;jettySize=auto;html=1;" edge="1" parent="1" target="xq6nGgoOThn_Jq3hT99E-103">
          <mxGeometry relative="1" as="geometry">
            <mxPoint x="695" y="110" as="sourcePoint" />
          </mxGeometry>
        </mxCell>
        <mxCell id="b5GPZ_7nPMZYBc7M1eJh-30" style="edgeStyle=orthogonalEdgeStyle;rounded=0;orthogonalLoop=1;jettySize=auto;html=1;fillColor=#cdeb8b;strokeColor=#CCFF99;shadow=0;strokeWidth=2;" edge="1" parent="1" source="xq6nGgoOThn_Jq3hT99E-90">
          <mxGeometry relative="1" as="geometry">
            <mxPoint x="320" y="240" as="targetPoint" />
          </mxGeometry>
        </mxCell>
        <mxCell id="b5GPZ_7nPMZYBc7M1eJh-31" style="edgeStyle=orthogonalEdgeStyle;rounded=0;orthogonalLoop=1;jettySize=auto;html=1;fillColor=#cdeb8b;strokeColor=#CCFF99;strokeWidth=2;" edge="1" parent="1" source="xq6nGgoOThn_Jq3hT99E-90">
          <mxGeometry relative="1" as="geometry">
            <mxPoint x="460" y="240" as="targetPoint" />
          </mxGeometry>
        </mxCell>
        <mxCell id="xq6nGgoOThn_Jq3hT99E-90" value="&lt;b&gt;user_id (PK)&lt;br&gt;&lt;/b&gt;-nombre&lt;br&gt;-apellido&lt;br&gt;-email&lt;br&gt;-contraseña&lt;br&gt;-tipo" style="whiteSpace=wrap;html=1;aspect=fixed;fillColor=#FFFF66;" parent="1" vertex="1">
          <mxGeometry x="340" y="110" width="100" height="100" as="geometry" />
        </mxCell>
        <mxCell id="xq6nGgoOThn_Jq3hT99E-91" value="EDITORES" style="rounded=0;whiteSpace=wrap;html=1;" parent="1" vertex="1">
          <mxGeometry x="340" y="80" width="100" height="30" as="geometry" />
        </mxCell>
        <mxCell id="b5GPZ_7nPMZYBc7M1eJh-10" style="edgeStyle=orthogonalEdgeStyle;rounded=0;orthogonalLoop=1;jettySize=auto;html=1;entryX=0.5;entryY=0;entryDx=0;entryDy=0;" edge="1" parent="1" source="xq6nGgoOThn_Jq3hT99E-103" target="b5GPZ_7nPMZYBc7M1eJh-15">
          <mxGeometry relative="1" as="geometry">
            <mxPoint x="680" y="290" as="targetPoint" />
          </mxGeometry>
        </mxCell>
        <mxCell id="b5GPZ_7nPMZYBc7M1eJh-33" style="edgeStyle=orthogonalEdgeStyle;rounded=0;orthogonalLoop=1;jettySize=auto;html=1;entryX=-0.021;entryY=0.618;entryDx=0;entryDy=0;entryPerimeter=0;strokeColor=#CCFF99;strokeWidth=3;" edge="1" parent="1" source="xq6nGgoOThn_Jq3hT99E-103" target="b5GPZ_7nPMZYBc7M1eJh-6">
          <mxGeometry relative="1" as="geometry">
            <Array as="points">
              <mxPoint x="760" y="168" />
              <mxPoint x="760" y="168" />
            </Array>
          </mxGeometry>
        </mxCell>
        <mxCell id="xq6nGgoOThn_Jq3hT99E-103" value="&lt;b&gt;ctd_id (PK)&lt;/b&gt;&lt;br&gt;nombre&lt;br&gt;fecha_inicio&lt;br&gt;fecha_fin&lt;br&gt;&lt;b&gt;&lt;i&gt;materias&lt;/i&gt;&lt;/b&gt;" style="whiteSpace=wrap;html=1;aspect=fixed;fillColor=#FFFF66;" parent="1" vertex="1">
          <mxGeometry x="640" y="110" width="115" height="115" as="geometry" />
        </mxCell>
        <mxCell id="b5GPZ_7nPMZYBc7M1eJh-8" style="edgeStyle=orthogonalEdgeStyle;rounded=0;orthogonalLoop=1;jettySize=auto;html=1;entryX=-0.05;entryY=0.875;entryDx=0;entryDy=0;entryPerimeter=0;" edge="1" parent="1" source="xq6nGgoOThn_Jq3hT99E-107" target="xq6nGgoOThn_Jq3hT99E-113">
          <mxGeometry relative="1" as="geometry" />
        </mxCell>
        <mxCell id="b5GPZ_7nPMZYBc7M1eJh-32" style="edgeStyle=orthogonalEdgeStyle;rounded=0;orthogonalLoop=1;jettySize=auto;html=1;strokeWidth=3;strokeColor=#CCFF99;" edge="1" parent="1" source="xq6nGgoOThn_Jq3hT99E-107" target="b5GPZ_7nPMZYBc7M1eJh-11">
          <mxGeometry relative="1" as="geometry" />
        </mxCell>
        <mxCell id="xq6nGgoOThn_Jq3hT99E-107" value="&lt;b&gt;materia_id (PK)&lt;/b&gt;&lt;br&gt;titulo&lt;br&gt;descripcion&lt;br&gt;img_src&lt;br&gt;fecha_inicio&lt;br&gt;fecha_fin&lt;br&gt;cupo_max&lt;br&gt;&lt;b&gt;&lt;i&gt;modulos&lt;/i&gt;&lt;/b&gt;" style="whiteSpace=wrap;html=1;aspect=fixed;fillColor=#FFFF66;" parent="1" vertex="1">
          <mxGeometry x="550" y="300" width="130" height="130" as="geometry" />
        </mxCell>
        <mxCell id="xq6nGgoOThn_Jq3hT99E-108" value="&lt;b&gt;&lt;i&gt;modulos&lt;/i&gt;&lt;/b&gt;" style="rounded=0;whiteSpace=wrap;html=1;" parent="1" vertex="1">
          <mxGeometry x="730" y="320" width="80" height="30" as="geometry" />
        </mxCell>
        <mxCell id="b5GPZ_7nPMZYBc7M1eJh-34" style="edgeStyle=orthogonalEdgeStyle;rounded=0;orthogonalLoop=1;jettySize=auto;html=1;strokeColor=#CCFF99;strokeWidth=3;" edge="1" parent="1" source="xq6nGgoOThn_Jq3hT99E-113">
          <mxGeometry relative="1" as="geometry">
            <mxPoint x="830" y="390" as="targetPoint" />
          </mxGeometry>
        </mxCell>
        <mxCell id="xq6nGgoOThn_Jq3hT99E-113" value="titulo&lt;br&gt;descripcion&lt;br&gt;fecha_inicio" style="whiteSpace=wrap;html=1;aspect=fixed;fillColor=#FFFF66;" parent="1" vertex="1">
          <mxGeometry x="730" y="350" width="80" height="80" as="geometry" />
        </mxCell>
        <mxCell id="b5GPZ_7nPMZYBc7M1eJh-5" value="USERS&lt;br&gt;TIPOS DE DATOS ASIGNADOS:&lt;br&gt;-nombre: CHAR(50)&lt;br&gt;-apellido: CHAR(20)&lt;br&gt;-email: CHAR(100)&lt;br&gt;-contraseña: TINYTEXT (200)" style="shape=process;whiteSpace=wrap;html=1;backgroundOutline=1;fillColor=#CCFF99;" vertex="1" parent="1">
          <mxGeometry x="270" y="250" width="235" height="110" as="geometry" />
        </mxCell>
        <mxCell id="b5GPZ_7nPMZYBc7M1eJh-6" value="COURSE&lt;br&gt;TIPOS DE DATOS ASIGNADOS:&lt;br&gt;-nombre: CHAR(50)&lt;br&gt;-fecha_inicio: DATE yyyy-mm-dd&amp;nbsp;&lt;br&gt;-fecha_fin: DATE yyyy-mm-dd&lt;br&gt;-&lt;i&gt;&lt;b&gt;materias&lt;/b&gt;&lt;/i&gt;: TINYTEXT(255), BOOLEAN" style="shape=process;whiteSpace=wrap;html=1;backgroundOutline=1;fillColor=#CCFF99;" vertex="1" parent="1">
          <mxGeometry x="790" y="100" width="235" height="110" as="geometry" />
        </mxCell>
        <mxCell id="b5GPZ_7nPMZYBc7M1eJh-11" value="&lt;i&gt;&lt;b&gt;materias&lt;/b&gt;&lt;/i&gt;&lt;br&gt;TIPOS DE DATOS ASIGNADOS:&lt;br&gt;-titulo: CHAR(50)&lt;br&gt;-descripcion: VARCHAR(600)&lt;br&gt;-img_src: TINYTEXT(255)&lt;br&gt;-fecha_inicio: DATE yyyy-mm-dd&amp;nbsp;&lt;br&gt;-fecha_fin: DATE yyyy-mm-dd&lt;br&gt;-cupo_max: SMALLINT&lt;br&gt;-&lt;i&gt;&lt;b&gt;modulos:&amp;nbsp;&lt;/b&gt;&lt;/i&gt;TINYTEXT(255), BOOLEAN" style="shape=process;whiteSpace=wrap;html=1;backgroundOutline=1;fillColor=#CCFF99;" vertex="1" parent="1">
          <mxGeometry x="480" y="450" width="270" height="150" as="geometry" />
        </mxCell>
        <mxCell id="b5GPZ_7nPMZYBc7M1eJh-13" value="&lt;b&gt;&lt;i&gt;modulos&lt;/i&gt;&lt;/b&gt;&lt;br&gt;TIPOS DE DATOS ASIGNADOS:&lt;br&gt;-titulo: CHAR(50)&lt;br&gt;-descripcion: VARCHAR(400)&lt;br&gt;-fecha_inicio: DATE yyyy-mm-dd" style="shape=process;whiteSpace=wrap;html=1;backgroundOutline=1;fillColor=#CCFF99;" vertex="1" parent="1">
          <mxGeometry x="830" y="330" width="240" height="100" as="geometry" />
        </mxCell>
        <mxCell id="b5GPZ_7nPMZYBc7M1eJh-14" value="&lt;b&gt;&lt;i&gt;&lt;font color=&quot;#ffffff&quot;&gt;modulos&lt;/font&gt;&lt;/i&gt;&lt;/b&gt;" style="rounded=0;whiteSpace=wrap;html=1;fillColor=#000000;" vertex="1" parent="1">
          <mxGeometry x="730" y="320" width="80" height="30" as="geometry" />
        </mxCell>
        <mxCell id="b5GPZ_7nPMZYBc7M1eJh-15" value="&lt;b&gt;&lt;i&gt;&lt;font color=&quot;#ffffff&quot;&gt;materias&lt;/font&gt;&lt;/i&gt;&lt;/b&gt;" style="rounded=0;whiteSpace=wrap;html=1;fillColor=#000000;" vertex="1" parent="1">
          <mxGeometry x="550" y="270" width="130" height="30" as="geometry" />
        </mxCell>
        <mxCell id="b5GPZ_7nPMZYBc7M1eJh-19" value="EDITORES" style="rounded=0;whiteSpace=wrap;html=1;" vertex="1" parent="1">
          <mxGeometry x="340" y="80" width="100" height="30" as="geometry" />
        </mxCell>
        <mxCell id="b5GPZ_7nPMZYBc7M1eJh-21" value="&lt;font style=&quot;background-color: rgb(0, 0, 0);&quot; color=&quot;#ffffff&quot;&gt;USERS&lt;/font&gt;" style="rounded=0;whiteSpace=wrap;html=1;fillColor=#000000;" vertex="1" parent="1">
          <mxGeometry x="340" y="80" width="100" height="30" as="geometry" />
        </mxCell>
        <mxCell id="b5GPZ_7nPMZYBc7M1eJh-25" value="&lt;font color=&quot;#ffffff&quot;&gt;COURSE (carreras)&lt;/font&gt;" style="rounded=0;whiteSpace=wrap;html=1;fillColor=#000000;" vertex="1" parent="1">
          <mxGeometry x="640" y="80" width="115" height="30" as="geometry" />
        </mxCell>
        <mxCell id="b5GPZ_7nPMZYBc7M1eJh-26" value="&lt;span style=&quot;background-color: rgb(51, 51, 255);&quot;&gt;&lt;font color=&quot;#ffffff&quot;&gt;PROYECTO&lt;br&gt;&lt;/font&gt;&lt;/span&gt;&lt;br&gt;&lt;span style=&quot;background-color: rgb(0, 0, 0);&quot;&gt;&lt;font color=&quot;#ffffff&quot;&gt;ENTIDADES&lt;br&gt;&lt;/font&gt;&lt;/span&gt;&lt;br&gt;&lt;span style=&quot;background-color: rgb(255, 255, 153);&quot;&gt;ATRUBUTOS&lt;br&gt;&lt;/span&gt;&lt;br&gt;&lt;span style=&quot;background-color: rgb(204, 255, 153);&quot;&gt;T/DE DATOS&lt;/span&gt;&lt;br&gt;&lt;br&gt;&lt;span style=&quot;background-color: rgb(230, 255, 204);&quot;&gt;comentario&lt;/span&gt;" style="rounded=0;whiteSpace=wrap;html=1;fillColor=#eeeeee;strokeColor=#36393d;" vertex="1" parent="1">
          <mxGeometry x="140" y="20" width="90" height="140" as="geometry" />
        </mxCell>
        <mxCell id="b5GPZ_7nPMZYBc7M1eJh-27" value="&lt;font style=&quot;font-size: 8px;&quot;&gt;&lt;i style=&quot;font-weight: bold;&quot;&gt;-materias&lt;/i&gt;:&lt;br&gt;TINYTEXT: titulos de las materias.&lt;br&gt;BOOLEAN: IF materia == front_end_1&amp;nbsp;&lt;br&gt;&lt;span style=&quot;white-space: pre;&quot;&gt;	&lt;/span&gt;&lt;span style=&quot;white-space: pre;&quot;&gt;	&lt;/span&gt;&lt;span style=&quot;white-space: pre;&quot;&gt;	&lt;/span&gt;return TRUE (front_end_1)&lt;/font&gt;" style="rounded=1;whiteSpace=wrap;html=1;fillColor=#E6FFCC;" vertex="1" parent="1">
          <mxGeometry x="870" y="210" width="155" height="60" as="geometry" />
        </mxCell>
        <mxCell id="b5GPZ_7nPMZYBc7M1eJh-28" value="&lt;font style=&quot;font-size: 8px;&quot;&gt;&lt;i style=&quot;font-weight: bold;&quot;&gt;-modulos&lt;/i&gt;:&lt;br&gt;TINYTEXT: titulos de los modulos.&lt;br style=&quot;border-color: var(--border-color);&quot;&gt;BOOLEAN: IF modulo == modelado_datos&amp;nbsp;&lt;br style=&quot;border-color: var(--border-color);&quot;&gt;&lt;span style=&quot;white-space: pre;&quot;&gt;&amp;nbsp;&amp;nbsp;&amp;nbsp;&amp;nbsp;&lt;/span&gt;&lt;span style=&quot;border-color: var(--border-color);&quot;&gt;&lt;span style=&quot;white-space: pre;&quot;&gt;&amp;nbsp;&amp;nbsp;&amp;nbsp;&amp;nbsp;&lt;/span&gt;&lt;/span&gt;&lt;span style=&quot;border-color: var(--border-color);&quot;&gt;&lt;span style=&quot;white-space: pre;&quot;&gt;&amp;nbsp;&lt;span style=&quot;white-space: pre;&quot;&gt;	&lt;/span&gt;&lt;span style=&quot;white-space: pre;&quot;&gt;	&lt;/span&gt;&amp;nbsp;&amp;nbsp;&amp;nbsp;&lt;/span&gt;&lt;/span&gt;return TRUE (modelado_datos)&lt;br&gt;&lt;/font&gt;" style="rounded=1;whiteSpace=wrap;html=1;fillColor=#E6FFCC;" vertex="1" parent="1">
          <mxGeometry x="575" y="600" width="175" height="60" as="geometry" />
        </mxCell>
        <mxCell id="b5GPZ_7nPMZYBc7M1eJh-29" value="&lt;span style=&quot;font-size: 8px;&quot;&gt;-tipo: admin, editor, docente, estudiante.&lt;/span&gt;" style="rounded=1;whiteSpace=wrap;html=1;fillColor=#E6FFCC;" vertex="1" parent="1">
          <mxGeometry x="340" y="210" width="100" height="30" as="geometry" />
        </mxCell>
      </root>
    </mxGraphModel>
  </diagram>
</mxfile>
